<?xml version="1.0" encoding="UTF-8" standalone="no"?>
<!-- Generator: Adobe Illustrator 19.1.0, SVG Export Plug-In . SVG Version: 6.00 Build 0)  -->

<svg
   xmlns:dc="http://purl.org/dc/elements/1.1/"
   xmlns:cc="http://creativecommons.org/ns#"
   xmlns:rdf="http://www.w3.org/1999/02/22-rdf-syntax-ns#"
   xmlns:svg="http://www.w3.org/2000/svg"
   xmlns="http://www.w3.org/2000/svg"
   xmlns:sodipodi="http://sodipodi.sourceforge.net/DTD/sodipodi-0.dtd"
   xmlns:inkscape="http://www.inkscape.org/namespaces/inkscape"
   version="1.1"
   id="narcotic_icon_head"
   x="0px"
   y="0px"
   viewBox="0 0 2973.8719 488.02"
   xml:space="preserve"
   width="390"
   height="64"
   role="img"
   inkscape:version="0.91 r13725"
   sodipodi:docname="head.svg"><metadata
     id="metadata10"><rdf:RDF><cc:Work
         rdf:about=""><dc:format>image/svg+xml</dc:format><dc:type
           rdf:resource="http://purl.org/dc/dcmitype/StillImage" /><dc:title></dc:title></cc:Work></rdf:RDF></metadata><defs
     id="defs8" /><sodipodi:namedview
     pagecolor="#ffffff"
     bordercolor="#666666"
     borderopacity="1"
     objecttolerance="10"
     gridtolerance="10"
     guidetolerance="10"
     inkscape:pageopacity="0"
     inkscape:pageshadow="2"
     inkscape:window-width="1882"
     inkscape:window-height="1051"
     id="namedview6"
     showgrid="false"
     inkscape:zoom="3.6875"
     inkscape:cx="191.59216"
     inkscape:cy="86.376594"
     inkscape:window-x="0"
     inkscape:window-y="0"
     inkscape:window-maximized="1"
     inkscape:current-layer="narcotic_icon_head" /><g
     class="id"
     id="g3"
     style="fill:#6c5353"
     transform="translate(-30.50125,0)"><path
       id="head"
       d="m 265.374,0 c -28.5,0 -55.5,6.4 -79.6,17.8 -63.7,29.6 -107.8,94 -107.8,168.8 l 0,0 0,24.9 0,6 -38,72.5 c -9.6,18.3 -0.5,33.3 20.1,33.3 l 17.9,0 0,0.4 0,31.6 0,36.9 c 0,21.5 17.6,39.2 39.2,39.2 l 53.8,-8 0.1,53.8 0,0.4 0,0 c 0.3,6.9 6.1,11.5 13.3,10.2 l 193.8,-34.3 c 7.3,-1.3 13.3,-8.4 13.3,-15.8 l 0,-8.5 0,-6.8 0,-98.6 c 37.1,-34.1 60.4,-83 60.4,-137.4 C 451.774,83.4 368.274,0 265.374,0 Z m 40.7,170.3 c -18.8,32.6 -37.6,65.2 -56.5,97.8 -0.1,0.1 -0.2,0.2 -0.2,0.4 -1.3,2.4 -2.8,4.7 -6,3.5 -3.3,-1.2 -2.5,-4.1 -2.1,-6.6 1.5,-8.2 3,-16.4 4.6,-24.6 2.7,-14.4 5.5,-28.8 8.2,-43.2 0.2,-1.2 0.3,-2.5 0.5,-4.2 -1.8,-0.1 -3.3,-0.2 -4.8,-0.2 -10.6,0 -21.3,0.1 -31.9,0.1 -6.3,0 -7.7,-2.6 -4.6,-8.1 18.8,-32.6 37.6,-65.2 56.5,-97.8 0.1,-0.1 0.2,-0.2 0.2,-0.4 1.3,-2.4 2.8,-4.7 6,-3.5 3.3,1.2 2.5,4.1 2.1,6.6 -1.5,8.2 -3,16.4 -4.6,24.6 -2.7,14.4 -5.5,28.8 -8.2,43.2 -0.2,1.2 -0.3,2.5 -0.5,4.2 1.8,0.1 3.3,0.2 4.8,0.2 10.6,0 21.3,-0.1 31.9,-0.1 6.3,0 7.8,2.6 4.6,8.1 z"
       inkscape:connector-curvature="0"
       style="fill:#6c5353" /></g><text
     xml:space="preserve"
     style="font-style:normal;font-weight:normal;font-size:305.01248169px;line-height:125%;font-family:sans-serif;letter-spacing:444.55569458px;word-spacing:0px;fill:#6c5353;fill-opacity:1;stroke:none;stroke-width:1px;stroke-linecap:butt;stroke-linejoin:miter;stroke-opacity:1;"
     x="445.50528"
     y="459.25186"
     id="text3346"
     sodipodi:linespacing="125%"><tspan
       sodipodi:role="line"
       id="tspan3348"
       x="445.50528"
       y="459.25186"
       style="font-style:normal;font-variant:normal;font-weight:bold;font-stretch:normal;font-size:457.51873779px;font-family:Sawasdee;-inkscape-font-specification:'Sawasdee Bold';letter-spacing:15.25062466px;fill:#6c5353;">NARCOTIC</tspan></text>
</svg>