<?xml version="1.0" encoding="UTF-8" standalone="no"?>
<!-- Generator: Adobe Illustrator 19.1.0, SVG Export Plug-In . SVG Version: 6.00 Build 0)  -->

<svg
   xmlns:dc="http://purl.org/dc/elements/1.1/"
   xmlns:cc="http://creativecommons.org/ns#"
   xmlns:rdf="http://www.w3.org/1999/02/22-rdf-syntax-ns#"
   xmlns:svg="http://www.w3.org/2000/svg"
   xmlns="http://www.w3.org/2000/svg"
   xmlns:sodipodi="http://sodipodi.sourceforge.net/DTD/sodipodi-0.dtd"
   xmlns:inkscape="http://www.inkscape.org/namespaces/inkscape"
   version="1.1"
   id="narcotic_icon_head"
   x="0px"
   y="0px"
   viewBox="0 0 2973.8719 488.02"
   xml:space="preserve"
   width="390"
   height="64"
   role="img"
   inkscape:version="0.91 r13725"
   sodipodi:docname="logo.svg"><metadata
     id="metadata10"><rdf:RDF><cc:Work
         rdf:about=""><dc:format>image/svg+xml</dc:format><dc:type
           rdf:resource="http://purl.org/dc/dcmitype/StillImage" /><dc:title /></cc:Work></rdf:RDF></metadata><defs
     id="defs8" /><sodipodi:namedview
     pagecolor="#ffffff"
     bordercolor="#666666"
     borderopacity="1"
     objecttolerance="10"
     gridtolerance="10"
     guidetolerance="10"
     inkscape:pageopacity="0"
     inkscape:pageshadow="2"
     inkscape:window-width="1882"
     inkscape:window-height="1051"
     id="namedview6"
     showgrid="false"
     inkscape:zoom="3.6875"
     inkscape:cx="171.38877"
     inkscape:cy="86.376594"
     inkscape:window-x="0"
     inkscape:window-y="0"
     inkscape:window-maximized="1"
     inkscape:current-layer="text3346" /><g
     class="id"
     id="g3"
     style="fill:#241c1c"
     transform="translate(-30.50125,0)"><path
       id="head"
       d="m 265.374,0 c -28.5,0 -55.5,6.4 -79.6,17.8 -63.7,29.6 -107.8,94 -107.8,168.8 l 0,0 0,24.9 0,6 -38,72.5 c -9.6,18.3 -0.5,33.3 20.1,33.3 l 17.9,0 0,0.4 0,31.6 0,36.9 c 0,21.5 17.6,39.2 39.2,39.2 l 53.8,-8 0.1,53.8 0,0.4 0,0 c 0.3,6.9 6.1,11.5 13.3,10.2 l 193.8,-34.3 c 7.3,-1.3 13.3,-8.4 13.3,-15.8 l 0,-8.5 0,-6.8 0,-98.6 c 37.1,-34.1 60.4,-83 60.4,-137.4 C 451.774,83.4 368.274,0 265.374,0 Z m 40.7,170.3 c -18.8,32.6 -37.6,65.2 -56.5,97.8 -0.1,0.1 -0.2,0.2 -0.2,0.4 -1.3,2.4 -2.8,4.7 -6,3.5 -3.3,-1.2 -2.5,-4.1 -2.1,-6.6 1.5,-8.2 3,-16.4 4.6,-24.6 2.7,-14.4 5.5,-28.8 8.2,-43.2 0.2,-1.2 0.3,-2.5 0.5,-4.2 -1.8,-0.1 -3.3,-0.2 -4.8,-0.2 -10.6,0 -21.3,0.1 -31.9,0.1 -6.3,0 -7.7,-2.6 -4.6,-8.1 18.8,-32.6 37.6,-65.2 56.5,-97.8 0.1,-0.1 0.2,-0.2 0.2,-0.4 1.3,-2.4 2.8,-4.7 6,-3.5 3.3,1.2 2.5,4.1 2.1,6.6 -1.5,8.2 -3,16.4 -4.6,24.6 -2.7,14.4 -5.5,28.8 -8.2,43.2 -0.2,1.2 -0.3,2.5 -0.5,4.2 1.8,0.1 3.3,0.2 4.8,0.2 10.6,0 21.3,-0.1 31.9,-0.1 6.3,0 7.8,2.6 4.6,8.1 z"
       inkscape:connector-curvature="0"
       style="fill:#241c1c" /></g><g
     style="font-style:normal;font-weight:normal;font-size:305.01248169px;line-height:125%;font-family:sans-serif;letter-spacing:444.55569458px;word-spacing:0px;fill:#241c1c;fill-opacity:1;stroke:none;stroke-width:1px;stroke-linecap:butt;stroke-linejoin:miter;stroke-opacity:1"
     id="text3346"><path
       d="m 477.45117,459.25186 0,-336.88391 275.00272,255.7905 0,-252.43954 35.52025,0 0,337.33071 -275.00272,-255.7905 0,251.99274 -35.52025,0 z"
       style="font-style:normal;font-variant:normal;font-weight:bold;font-stretch:normal;font-size:457.51873779px;font-family:Sawasdee;-inkscape-font-specification:'Sawasdee Bold';letter-spacing:15.25062466px;fill:#241c1c"
       id="path3391" /><path
       d="m 935.47625,325.65996 108.34795,0 -54.50907,-114.37968 -53.83888,114.37968 z m -16.30804,34.40327 -41.3286,98.74184 -37.97763,0 149.00635,-336.43712 149.00637,336.43712 -38.201,0 -41.9988,-98.74184 -138.50669,0 z"
       style="font-style:normal;font-variant:normal;font-weight:bold;font-stretch:normal;font-size:457.51873779px;font-family:Sawasdee;-inkscape-font-specification:'Sawasdee Bold';letter-spacing:15.25062466px;fill:#241c1c"
       id="path3393" /><path
       d="m 1189.7626,459.25186 0,-333.53295 123.9858,0 q 38.4244,0 65.2321,27.25454 26.8078,27.03114 26.8078,65.23216 0,30.38211 -17.6485,54.50907 -17.425,23.90357 -45.3497,33.06288 l 86.4549,153.4743 -40.435,0 -83.9976,-149.45314 -79.5296,0 0,149.45314 -35.5202,0 z m 35.5202,-184.0798 89.5825,0 q 22.5632,0 38.8713,-16.53144 16.5314,-16.75484 16.5314,-40.43501 0,-24.12696 -16.5314,-41.1052 -16.5315,-16.97823 -39.9882,-16.97823 l -88.4656,0 0,115.04988 z"
       style="font-style:normal;font-variant:normal;font-weight:bold;font-stretch:normal;font-size:457.51873779px;font-family:Sawasdee;-inkscape-font-specification:'Sawasdee Bold';letter-spacing:15.25062466px;fill:#241c1c"
       id="path3395" /><path
       d="m 1759.9334,368.10555 28.5949,18.54202 q -56.9664,75.50846 -144.0916,75.50846 -35.2968,0 -67.6895,-13.40387 -32.1693,-13.40387 -55.6261,-35.96705 -23.2334,-22.56318 -37.084,-53.83887 -13.8507,-31.49909 -13.8507,-66.12576 0,-34.62666 13.8507,-66.12575 13.8506,-31.49909 37.084,-54.28567 23.4568,-22.78658 55.6261,-36.19045 32.3927,-13.40387 67.6895,-13.40387 17.8718,0 34.6267,3.35097 16.7548,3.35097 29.4885,8.48912 12.7337,4.91475 24.7971,12.28688 12.0635,7.37213 20.1059,14.07406 8.0423,6.47854 15.8612,14.74426 7.8189,8.04232 11.6167,12.73367 3.7977,4.46796 7.5955,9.82951 l -28.1481,20.3292 q -6.0318,-7.59553 -9.8295,-12.06348 -3.7978,-4.46796 -15.6379,-14.96766 -11.6167,-10.4997 -23.0099,-16.75483 -11.3933,-6.47854 -29.712,-11.84009 -18.0952,-5.36155 -37.7542,-5.36155 -28.3715,0 -54.0623,10.7231 -25.6907,10.72309 -44.2327,28.81832 -18.542,18.09522 -29.4885,43.33917 -10.7231,25.02056 -10.7231,52.72189 0,27.47793 10.7231,52.49849 10.9465,25.02055 29.2651,43.33918 18.542,18.09522 44.2327,28.81831 25.9142,10.7231 54.2857,10.7231 19.4356,0 37.3074,-5.13815 18.0953,-5.13815 29.9354,-11.84008 11.84,-6.70194 22.7865,-16.30805 11.1699,-9.6061 15.8613,-15.19105 4.9147,-5.58494 9.6061,-12.06348 z"
       style="font-style:normal;font-variant:normal;font-weight:bold;font-stretch:normal;font-size:457.51873779px;font-family:Sawasdee;-inkscape-font-specification:'Sawasdee Bold';letter-spacing:15.25062466px;fill:#241c1c"
       id="path3397" /><path
       d="m 2180.2042,226.69473 q 13.8506,31.49909 13.8506,66.12575 0,34.62667 -13.8506,66.12576 -13.6273,31.27569 -37.0841,53.83887 -23.2333,22.56318 -55.4026,35.96705 -31.9459,13.40387 -67.0194,13.40387 -35.2968,0 -67.6895,-13.40387 -32.1693,-13.40387 -55.6261,-35.96705 -23.2333,-22.56318 -37.084,-53.83887 -13.8507,-31.49909 -13.8507,-66.12576 0,-34.62666 13.8507,-66.12575 13.8507,-31.49909 37.084,-54.28567 23.4568,-22.78658 55.6261,-36.19045 32.3927,-13.40387 67.6895,-13.40387 35.0735,0 67.0194,13.40387 32.1693,13.40387 55.4026,36.19045 23.4568,22.78658 37.0841,54.28567 z m -298.0127,66.12575 q 0,27.47794 10.7231,52.49849 10.9465,25.02056 29.2651,43.33918 18.542,18.09522 44.2328,28.81832 25.9141,10.72309 54.2856,10.72309 37.5309,0 69.2534,-18.09522 31.9458,-18.31862 50.4879,-49.37092 18.542,-31.27569 18.542,-67.91294 0,-36.86064 -18.542,-68.13633 -18.5421,-31.2757 -50.4879,-49.37092 -31.7225,-18.09522 -69.2534,-18.09522 -28.3715,0 -54.0622,10.72309 -25.6908,10.7231 -44.2328,28.81832 -18.542,18.09523 -29.4885,43.33918 -10.7231,25.02055 -10.7231,52.72188 z"
       style="font-style:normal;font-variant:normal;font-weight:bold;font-stretch:normal;font-size:457.51873779px;font-family:Sawasdee;-inkscape-font-specification:'Sawasdee Bold';letter-spacing:15.25062466px;fill:#241c1c"
       id="path3399" /><path
       d="m 2440.7457,125.71891 0,34.40327 -84.8912,0 0,299.12968 -34.85,0 0,-299.12968 -85.1146,0 0,-34.40327 204.8558,0 z"
       style="font-style:normal;font-variant:normal;font-weight:bold;font-stretch:normal;font-size:457.51873779px;font-family:Sawasdee;-inkscape-font-specification:'Sawasdee Bold';letter-spacing:15.25062466px;fill:#241c1c"
       id="path3401" /><path
       d="m 2527.4836,459.25186 -35.5202,0 0,-333.53295 35.5202,0 0,333.53295 z"
       style="font-style:normal;font-variant:normal;font-weight:bold;font-stretch:normal;font-size:457.51873779px;font-family:Sawasdee;-inkscape-font-specification:'Sawasdee Bold';letter-spacing:15.25062466px;fill:#241c1c"
       id="path3403" /><path
       d="m 2885.2031,368.10555 28.5949,18.54202 q -56.9664,75.50846 -144.0916,75.50846 -35.2968,0 -67.6895,-13.40387 -32.1693,-13.40387 -55.6261,-35.96705 -23.2333,-22.56318 -37.084,-53.83887 -13.8507,-31.49909 -13.8507,-66.12576 0,-34.62666 13.8507,-66.12575 13.8507,-31.49909 37.084,-54.28567 23.4568,-22.78658 55.6261,-36.19045 32.3927,-13.40387 67.6895,-13.40387 17.8719,0 34.6267,3.35097 16.7548,3.35097 29.4885,8.48912 12.7337,4.91475 24.7972,12.28688 12.0634,7.37213 20.1058,14.07406 8.0423,6.47854 15.8612,14.74426 7.8189,8.04232 11.6167,12.73367 3.7978,4.46796 7.5955,9.82951 l -28.1481,20.3292 q -6.0317,-7.59553 -9.8295,-12.06348 -3.7978,-4.46796 -15.6379,-14.96766 -11.6166,-10.4997 -23.0099,-16.75483 -11.3933,-6.47854 -29.7119,-11.84009 -18.0953,-5.36155 -37.7543,-5.36155 -28.3715,0 -54.0622,10.7231 -25.6908,10.72309 -44.2328,28.81832 -18.542,18.09522 -29.4885,43.33917 -10.7231,25.02056 -10.7231,52.72189 0,27.47793 10.7231,52.49849 10.9465,25.02055 29.2651,43.33918 18.542,18.09522 44.2328,28.81831 25.9141,10.7231 54.2856,10.7231 19.4356,0 37.3075,-5.13815 18.0952,-5.13815 29.9353,-11.84008 11.8401,-6.70194 22.7865,-16.30805 11.1699,-9.6061 15.8613,-15.19105 4.9147,-5.58494 9.6061,-12.06348 z"
       style="font-style:normal;font-variant:normal;font-weight:bold;font-stretch:normal;font-size:457.51873779px;font-family:Sawasdee;-inkscape-font-specification:'Sawasdee Bold';letter-spacing:15.25062466px;fill:#241c1c"
       id="path3405" /></g></svg>